<svg width="20" height="18" viewBox="0 0 20 18" fill="none" xmlns="http://www.w3.org/2000/svg">
<path d="M20 9C20 9 16.25 2.8125 10 2.8125C3.75 2.8125 0 9 0 9C0 9 3.75 15.1875 10 15.1875C16.25 15.1875 20 9 20 9ZM1.46625 9C2.06973 8.17266 2.76496 7.40259 3.54125 6.70162C5.15 5.2515 7.35 3.9375 10 3.9375C12.65 3.9375 14.8488 5.2515 16.46 6.70162C17.2363 7.40259 17.9315 8.17266 18.535 9C18.4633 9.0975 18.3821 9.2055 18.2913 9.324C17.8725 9.864 17.2537 10.584 16.46 11.2984C14.8488 12.7485 12.6488 14.0625 10 14.0625C7.35125 14.0625 5.15125 12.7485 3.54 11.2984C2.76371 10.5974 2.06973 9.82734 1.46625 9Z" fill="black"/>
<path d="M10 6.1875C9.1712 6.1875 8.37634 6.48382 7.79029 7.01126C7.20424 7.53871 6.875 8.25408 6.875 9C6.875 9.74592 7.20424 10.4613 7.79029 10.9887C8.37634 11.5162 9.1712 11.8125 10 11.8125C10.8288 11.8125 11.6237 11.5162 12.2097 10.9887C12.7958 10.4613 13.125 9.74592 13.125 9C13.125 8.25408 12.7958 7.53871 12.2097 7.01126C11.6237 6.48382 10.8288 6.1875 10 6.1875ZM5.625 9C5.625 7.95571 6.08594 6.95419 6.90641 6.21577C7.72688 5.47734 8.83968 5.0625 10 5.0625C11.1603 5.0625 12.2731 5.47734 13.0936 6.21577C13.9141 6.95419 14.375 7.95571 14.375 9C14.375 10.0443 13.9141 11.0458 13.0936 11.7842C12.2731 12.5227 11.1603 12.9375 10 12.9375C8.83968 12.9375 7.72688 12.5227 6.90641 11.7842C6.08594 11.0458 5.625 10.0443 5.625 9Z" fill="black"/>
<ellipse cx="10" cy="9" rx="3.75" ry="3.375" fill="black"/>
<rect width="0.95768" height="19.0746" transform="matrix(0.767431 -0.641132 0.619734 0.784812 3.75 2.0957)" fill="#D9D9D9"/>
<rect width="1.00453" height="19.0674" transform="matrix(0.767431 -0.641132 0.619734 0.784812 2.99609 2.73535)" fill="black"/>
</svg>
