<svg width="24.000000" height="24.000000" viewBox="0 0 24 24" fill="none" xmlns="http://www.w3.org/2000/svg" xmlns:xlink="http://www.w3.org/1999/xlink">
	<desc>
			Created with Pixso.
	</desc>
	<defs>
		<clipPath id="clip7_6984">
			<rect id="plus-lg" rx="0.000000" width="23.000000" height="23.000000" transform="translate(0.500000 0.500000)" fill="white" fill-opacity="0"/>
		</clipPath>
	</defs>
	<rect id="plus-lg" rx="0.000000" width="23.000000" height="23.000000" transform="translate(0.500000 0.500000)" fill="#FFFFFF" fill-opacity="0"/>
	<rect id="plus-lg" rx="0.000000" width="23.000000" height="23.000000" transform="translate(0.500000 0.500000)" fill="#FFFFFF" fill-opacity="0"/>
	<g clip-path="url(#clip7_6984)">
		<path id="Vector" d="M12 3C12.19 3 12.38 3.07 12.53 3.21C12.67 3.36 12.75 3.55 12.75 3.75L12.75 11.25L20.25 11.25C20.44 11.25 20.63 11.32 20.78 11.46C20.92 11.61 21 11.8 21 12C21 12.19 20.92 12.38 20.78 12.53C20.63 12.67 20.44 12.75 20.25 12.75L12.75 12.75L12.75 20.25C12.75 20.44 12.67 20.63 12.53 20.78C12.38 20.92 12.19 21 12 21C11.8 21 11.61 20.92 11.46 20.78C11.32 20.63 11.25 20.44 11.25 20.25L11.25 12.75L3.75 12.75C3.55 12.75 3.36 12.67 3.21 12.53C3.07 12.38 3 12.19 3 12C3 11.8 3.07 11.61 3.21 11.46C3.36 11.32 3.55 11.25 3.75 11.25L11.25 11.25L11.25 3.75C11.25 3.55 11.32 3.36 11.46 3.21C11.61 3.07 11.8 3 12 3Z" fill="#B6B7B7" fill-opacity="1.000000" fill-rule="evenodd"/>
	</g>
</svg>
