<svg width="16.000000" height="16.000000" viewBox="0 0 16 16" fill="none" xmlns="http://www.w3.org/2000/svg" xmlns:xlink="http://www.w3.org/1999/xlink">
	<desc>
			Created with Pixso.
	</desc>
	<defs>
		<clipPath id="clip3_8890">
			<rect id="trash" rx="0.000000" width="15.000000" height="15.000000" transform="translate(0.500000 0.500000)" fill="white" fill-opacity="0"/>
		</clipPath>
	</defs>
	<rect id="Component 14" rx="0.000000" width="15.000000" height="15.000000" transform="translate(0.500000 0.500000)" fill="#FFFFFF" fill-opacity="0"/>
	<rect id="trash" rx="0.000000" width="15.000000" height="15.000000" transform="translate(0.500000 0.500000)" fill="#FFFFFF" fill-opacity="0"/>
	<rect id="trash" rx="0.000000" width="15.000000" height="15.000000" transform="translate(0.500000 0.500000)" fill="#FFFFFF" fill-opacity="0"/>
	<g clip-path="url(#clip3_8890)">
		<path id="Vector" d="M5.51 5.33C5.64 5.33 5.77 5.38 5.86 5.47C5.95 5.57 6.01 5.7 6.01 5.83L6.01 11.83C6.01 11.96 5.95 12.09 5.86 12.18C5.77 12.28 5.64 12.33 5.51 12.33C5.38 12.33 5.25 12.28 5.15 12.18C5.06 12.09 5.01 11.96 5.01 11.83L5.01 5.83C5.01 5.7 5.06 5.57 5.15 5.47C5.25 5.38 5.38 5.33 5.51 5.33ZM8.01 5.33C8.14 5.33 8.27 5.38 8.36 5.47C8.45 5.57 8.51 5.7 8.51 5.83L8.51 11.83C8.51 11.96 8.45 12.09 8.36 12.18C8.27 12.28 8.14 12.33 8.01 12.33C7.88 12.33 7.75 12.28 7.65 12.18C7.56 12.09 7.51 11.96 7.51 11.83L7.51 5.83C7.51 5.7 7.56 5.57 7.65 5.47C7.75 5.38 7.88 5.33 8.01 5.33ZM11.01 5.83C11.01 5.7 10.96 5.57 10.86 5.47C10.77 5.38 10.64 5.33 10.51 5.33C10.38 5.33 10.25 5.38 10.15 5.47C10.06 5.57 10.01 5.7 10.01 5.83L10.01 11.83C10.01 11.96 10.06 12.09 10.15 12.18C10.25 12.28 10.38 12.33 10.51 12.33C10.64 12.33 10.77 12.28 10.86 12.18C10.96 12.09 11.01 11.96 11.01 11.83L11.01 5.83Z" fill="#B6B7B7" fill-opacity="1.000000" fill-rule="nonzero"/>
		<path id="Vector" d="M14.33 3C14.33 3.26 14.22 3.51 14.04 3.7C13.85 3.89 13.59 4 13.33 4L12.83 4L12.83 13C12.83 13.53 12.62 14.03 12.24 14.41C11.87 14.78 11.36 15 10.83 15L4.83 15C4.3 15 3.79 14.78 3.41 14.41C3.04 14.03 2.83 13.53 2.83 13L2.83 4L2.33 4C2.06 4 1.81 3.89 1.62 3.7C1.43 3.51 1.33 3.26 1.33 3L1.33 2C1.33 1.73 1.43 1.48 1.62 1.29C1.81 1.1 2.06 1 2.33 1L5.83 1C5.83 0.73 5.93 0.48 6.12 0.29C6.31 0.1 6.56 0 6.83 0L8.83 0C9.09 0 9.35 0.1 9.54 0.29C9.72 0.48 9.83 0.73 9.83 1L13.33 1C13.59 1 13.85 1.1 14.04 1.29C14.22 1.48 14.33 1.73 14.33 2L14.33 3ZM3.95 4L3.83 4.05L3.83 13C3.83 13.26 3.93 13.51 4.12 13.7C4.31 13.89 4.56 14 4.83 14L10.83 14C11.09 14 11.35 13.89 11.54 13.7C11.72 13.51 11.83 13.26 11.83 13L11.83 4.05L11.71 4L3.95 4ZM2.33 3L2.33 2L13.33 2L13.33 3L2.33 3Z" fill="#B6B7B7" fill-opacity="1.000000" fill-rule="evenodd"/>
	</g>
</svg>
